# xmcd CD database file
#
# Track frame offsets:
#	150
#	20100
#	39552
#	72552
#	103690
#	123405
#	160697
#	188552
#	216105
#	255850
#
# Disc length: 3499 seconds
#
# Revision: 0
# Processed by: cddbd v1.5.1PL2 Copyright (c) Steve Scherf et al.
# Submitted via: CDex 1.51
#
DISCID=850da90a
DTITLE=Kom'en In'trist - KI
DYEAR=1900
DGENRE=Jazz
TTITLE0=We're Together
TTITLE1=K.J. Salsa
TTITLE2=Private Moments
TTITLE3=828 Lawton St
TTITLE4=Can We Try Again
TTITLE5=Better Late Then Never
TTITLE6=After Dark
TTITLE7=Elegant Lady
TTITLE8=Gotta Have It
TTITLE9=828 Lawton St (reprise)
EXTD=
EXTT0=
EXTT1=
EXTT2=
EXTT3=
EXTT4=
EXTT5=
EXTT6=
EXTT7=
EXTT8=
EXTT9=
PLAYORDER=
